<svg version="1.2" xmlns="http://www.w3.org/2000/svg" viewBox="0 0 512 512" width="512" height="512"><style>.a{fill:#474747}</style><path fill-rule="evenodd" class="a" d="m509.6 192.8l-73.1 73.2c-3.1 3.1-8.4 3.1-11.5 0l-22.7-22.8-6.9 6.8 1.9 1.9c15.8 15.8 15.8 41.4 0 57.2l-20.2 20.2 12.9 12.8c6.4 6.4 9.9 15 9.9 24 0 9.1-3.5 17.6-9.9 24-7.4 7.4-17.3 10.7-26.9 9.9 0.8 9.6-2.5 19.5-9.9 26.9-7.2 7.2-17 10.5-26.6 9.8 0.8 9.6-2.6 19.4-9.8 26.6-7 7-16.9 10.6-26.8 9.9 0.8 9.5-2.5 19.4-9.8 26.7-6.6 6.6-15.3 9.9-24 9.9-8.7 0-17.4-3.3-24-9.9l-16.2-16.2-3.1 3c-4.6 4.6-10.6 7.1-17.1 7.1-6.5 0-12.6-2.5-17.2-7.1l-13.7-13.7c-4.4-4.4-6.7-10-7-15.8-6-0.3-11.6-2.8-15.9-7.1l-13.7-13.7c-4.2-4.2-6.7-9.8-7-15.8-5.8-0.3-11.5-2.6-15.8-7l-13.8-13.8c-4.2-4.2-6.7-9.8-7-15.8-5.8-0.3-11.4-2.6-15.8-7l-13.7-13.7c-9.5-9.5-9.5-24.9-0.1-34.3l3.1-3.1-51.4-51.4c-3.2-3.1-3.2-8.2 0-11.4 3.2-3.2 8.3-3.2 11.4 0l51.4 51.4 35.1-35.1c13-13 34.3-13.2 47.5-0.4q0 0 0 0c6.5 6.2 10.2 14.7 10.3 23.9q0 3.8-0.8 7.4c8.3 0.2 16.6 3.3 22.9 9.4 6.5 6.3 10.2 14.8 10.3 24q0 2.6-0.4 5.1c8.9-0.3 18 2.8 24.8 9.4q0 0 0 0c6.5 6.3 10.1 14.8 10.2 24q0.1 3.7-0.7 7.4c8.3 0.1 16.5 3.3 22.9 9.4 6.5 6.3 10.1 14.8 10.2 23.9 0.1 3.3-0.4 6.5-1.2 9.7 0.4 0.3 19.5 19.3 19.5 19.3q0 0 0 0c6.9 6.8 18.3 6.8 25.2 0 6.2-6.3 7.4-16.6 1.6-23.3-4.6-5.3-19.9-20.2-19.9-20.2-3.2-3.1-3.2-8.2 0-11.4 3.1-3.2 8.2-3.2 11.4 0 0 0 18.9 18.9 19.1 19.3 7 6 17.6 5.7 24.2-0.9 6.9-6.9 6.9-18.2 0-25.1-0.4-0.4-18.2-18.4-18.2-18.4-3.1-3.2-3.1-8.3 0-11.5 3.2-3.1 8.3-3.1 11.5 0l18.3 18.3q0 0 0 0c6.9 6.9 18.2 6.9 25.1 0 7-6.9 7-18.2 0-25.1l-128.7-128.7-6.8 6.8 20.2 20.2c15.8 15.8 15.8 41.4 0 57.2l-19.8 19.8c-3.2 3.2-8.3 3.2-11.5 0l-73.9-73.9c-9.3-9.4-9.3-25 0-34.3l43.8-43.8-40-40.1c-3.2-3.1-3.2-8.3 0-11.4 3.1-3.2 8.2-3.2 11.4 0l40.1 40 55.6-55.6-20.7-20.7c-3.2-3.1-3.2-8.2 0-11.4l73.2-73.2c3.1-3.1 8.2-3.1 11.4 0l176.8 176.8c3.2 3.2 3.2 8.3 0 11.5zm-417.9 172.7l49.2-49.1c2.9-2.9 4.8-6.8 5.3-10.9 0.9-7.4-2.9-14.7-9.7-18-6.7-3.3-15.1-2-20.4 3.4l-49.5 49.5c-3.2 3.1-3.2 8.3 0 11.4l13.7 13.7c3.2 3.2 8.3 3.2 11.4 0zm36.6 36.6l45-44.9c5-5.1 6.8-13 4.2-19.7-2.6-6.7-9.3-11.1-16.4-11.1-4.6 0-9.1 1.8-12.6 5.2l-45.3 45.4c-3.2 3.1-3.2 8.3 0 11.4l13.7 13.7c3.1 3.2 8.3 3.2 11.4 0zm79.6-6.4c3.2-3.2 5.1-7.5 5.4-12 0.5-6.8-3.2-13.4-9.3-16.7-6.7-3.6-15.4-2.3-20.8 3.1l-43.4 43.5c-3.2 3.1-3.2 8.3-0.1 11.4l13.8 13.7c3.1 3.1 8.3 3.1 11.4 0zm32.4 40.8c6.9-6.9 7.3-18.9 0.2-25.8-6.9-6.6-18.2-6.5-24.9 0.2l-39.3 39.3q0 0 0 0c-3.2 3.1-3.1 8.3 0 11.4l13.7 13.7c1.5 1.6 3.6 2.4 5.7 2.4 2.2 0 4.2-0.8 5.8-2.4zm28.4 26.9q0 0 0 0l-16.3-16.2c-0.2 0.2-25.1 25.1-25.1 25.1l16.2 16.2c7 7 18.2 7 25.2 0 6.9-6.9 6.9-18.2 0-25.1zm223.7-276.3l-165.4-165.3-61.7 61.7 93.5 93.6c3.2 3.1 3.2 8.2 0 11.4-3.1 3.2-8.2 3.2-11.4 0l-67.2-67.2-110.8 110.9c-3.2 3.1-3.2 8.3 0 11.4l68.2 68.2 14.1-14.1c9.4-9.4 9.4-24.8 0-34.3l-25.9-25.9c-3.2-3.1-3.2-8.2 0-11.4l18.3-18.3c3.1-3.1 8.3-3.1 11.4 0l110.1 110.1 20.2-20.2c9.5-9.4 9.5-24.8 0-34.3l-7.6-7.6c-3.2-3.1-3.2-8.2 0-11.4l12.6-12.6-11.3-11.2c-3.1-3.1-3.1-8.2 0-11.4 3.2-3.2 8.3-3.2 11.5 0l39.7 39.7z"/><path fill-rule="evenodd" class="a" d="m145.5 74.9c0 4.1-3 7.5-7 8-5.5 0.8-19.3 3.8-29.2 16.4-7 9-8.7 18.7-9.1 23.7-0.3 4.2-3.8 7.4-8 7.4-4.3 0-7.8-3.2-8.1-7.4-0.4-5-2.1-14.7-9.1-23.7-9.9-12.6-23.7-15.6-29.2-16.4-4-0.5-7-3.9-7-8 0-4 3-7.5 7-8 5.5-0.7 19.3-3.8 29.2-16.4 7-8.9 8.7-18.6 9.1-23.6 0.3-4.2 3.8-7.5 8.1-7.5 4.2 0 7.7 3.3 8 7.5 0.4 5 2.1 14.7 9.1 23.6 9.9 12.6 23.7 15.7 29.2 16.4 4 0.5 7 4 7 8zm-32.4 0c-8.6-5-15.9-12.3-20.9-20.9q-1.9 3.3-4.5 6.5c-5 6.5-10.8 11.1-16.5 14.4 5.7 3.3 11.5 8 16.5 14.4q0 0 0 0 2.6 3.3 4.5 6.5c5-8.6 12.3-15.8 20.9-20.9z"/><path fill-rule="evenodd" class="a" d="m106.7 454.3c0 4.1-3 7.5-7 8-5.5 0.8-19.3 3.8-29.2 16.4-7 9-8.7 18.7-9.1 23.7-0.3 4.2-3.8 7.4-8 7.4-4.3 0-7.8-3.2-8.1-7.4-0.4-5-2.1-14.7-9.1-23.7-9.9-12.6-23.7-15.6-29.2-16.4-4-0.5-7-3.9-7-8 0-4 3-7.4 7-8 5.5-0.7 19.3-3.8 29.2-16.4 7-8.9 8.7-18.6 9.1-23.6 0.3-4.2 3.8-7.5 8.1-7.5 4.2 0 7.7 3.3 8 7.5 0.4 5 2.1 14.7 9.1 23.6 9.9 12.6 23.7 15.7 29.2 16.4 4 0.6 7 4 7 8zm-32.4 0c-8.6-5-15.9-12.2-20.9-20.9-5.1 8.7-12.4 15.9-21 20.9 5.7 3.3 11.5 8 16.5 14.4q0 0 0 0 2.6 3.3 4.5 6.5 1.9-3.2 4.4-6.5c5-6.4 10.9-11.1 16.5-14.4z"/><path fill-rule="evenodd" class="a" d="m512 385.3c0 4.1-3 7.5-7 8.1-5.5 0.7-19.3 3.7-29.2 16.3-7 9-8.7 18.7-9.1 23.7-0.3 4.2-3.8 7.5-8.1 7.5-4.2 0-7.7-3.3-8-7.5-0.4-5-2.1-14.7-9.1-23.7-9.9-12.6-23.7-15.6-29.2-16.3-4-0.6-7-4-7-8.1 0-4 3-7.4 7-8 5.5-0.7 19.3-3.7 29.2-16.3 7-9 8.7-18.7 9.1-23.7 0.3-4.2 3.8-7.5 8-7.5 4.3 0 7.8 3.3 8.1 7.5 0.4 5 2.1 14.7 9.1 23.7 9.9 12.5 23.7 15.6 29.2 16.3 4 0.6 7 4 7 8zm-32.4 0c-8.6-5-15.9-12.2-21-20.8-5 8.6-12.3 15.8-20.9 20.8 5.6 3.4 11.5 8 16.5 14.5q0 0 0 0 2.5 3.2 4.4 6.4 1.9-3.2 4.5-6.4c5-6.5 10.8-11.1 16.5-14.5z"/></svg>