<svg version="1.2" xmlns="http://www.w3.org/2000/svg" viewBox="0 0 292 292" width="292" height="292"><style>.a{fill:#ac1f40}</style><path fill-rule="evenodd" class="a" d="m32.4 72.4c-25.6-27.3-6.3-72.3 31.3-72.4q0 0 0.1 0c14.5 0 27.5 7.2 35.5 18.7 7.9-11.5 20.9-18.7 35.5-18.7q0 0 0.1 0c37.6 0.1 56.8 45.1 31.2 72.4q-0.1 0.2-0.3 0.3l-48.6 50.6c-9.8 10.2-26 10.2-35.8 0l-48.7-50.6q-0.1-0.1-0.3-0.3zm11.1-10.1q0.2 0.2 0.3 0.3l48.4 50.3c3.9 4 10.3 4 14.2 0l48.4-50.3q0.1-0.1 0.2-0.3c17-17.7 4.4-47.2-20.1-47.3q-0.1 0-0.1 0c-15.5 0-28 12.5-28 28 0 4.1-3.4 7.5-7.5 7.5-4.2 0-7.5-3.4-7.5-7.5 0-15.5-12.5-28-28-28q-0.1 0-0.1 0c-24.5 0.1-37.1 29.6-20.2 47.3z"/><path fill-rule="evenodd" d="m291.3 152.9v50c0 4.1-3.4 7.5-7.5 7.5h-33.3l-120.9 76.1c-10.5 6.7-24 6.7-34.6 0l-79.6-50.2c-15.2-9.5-19.7-29.6-10.2-44.8 9.6-15.1 29.7-19.7 44.9-10.1l62.2 39.2 19.4-12.2c-12.5-4.5-21.4-16.5-21.4-30.5 0-18 14.6-32.5 32.5-32.5h141c4.1 0 7.5 3.3 7.5 7.5zm-15 7.5h-133.5c-9.7 0-17.5 7.8-17.5 17.5 0 9.6 7.8 17.5 17.5 17.5 15.3 0 12 0 27.5 0 4.1 0 7.5 3.3 7.5 7.5 0 4.1-3.4 7.5-7.5 7.5h-13.6l-40.4 25.4c-2.4 1.5-5.5 1.5-8 0l-66.2-41.8c-2.9-1.8-6.2-2.6-9.3-2.6-17.6 0-24.2 22.9-9.4 32.3l79.6 50.1c5.7 3.6 12.9 3.6 18.6 0l122.7-77.3c1.2-0.7 2.6-1.1 4-1.1h28z"/></svg>