<?xml version="1.0" encoding="utf-8"?>
<!-- Generator: Adobe Illustrator 26.2.1, SVG Export Plug-In . SVG Version: 6.00 Build 0)  -->
<svg version="1.1" xmlns="http://www.w3.org/2000/svg" xmlns:xlink="http://www.w3.org/1999/xlink" x="0px" y="0px"
	 viewBox="0 0 2500 1600" style="enable-background:new 0 0 2500 1600;" xml:space="preserve">
<style type="text/css">
	.st0{display:none;}
	.st1{display:inline;fill:#EDFCFF;}
	.st2{fill:#FACACA;}
	.st3{fill:#D17979;}
	.st4{fill:#F29191;}
	.st5{fill:url(#SVGID_1_);}
	.st6{fill:#FFFFFF;}
	.st7{fill:url(#SVGID_00000168077569610920673190000003544755249718049669_);}
	.st8{fill:url(#SVGID_00000049190787400848235510000012427596195697447842_);}
	.st9{fill:url(#SVGID_00000160192371619587299760000006386599530035148206_);}
	.st10{fill:url(#SVGID_00000091706812975162873720000006079440503336677278_);}
	.st11{fill:url(#SVGID_00000173857157169648762710000005852307455869720712_);}
	.st12{fill:url(#SVGID_00000067207600857562877070000014317945765816778389_);}
	.st13{fill:url(#SVGID_00000008827347021629900340000015664762039443246493_);}
	.st14{fill:url(#SVGID_00000112604801341785834020000002733692186134744461_);}
	.st15{fill:#DEAC68;}
	.st16{fill:#333333;}
	.st17{fill:#183862;}
	.st18{fill:#AC1F40;}
	.st19{fill:#F1AB89;}
	.st20{fill:#CC7E58;}
	.st21{fill:#5C5C5C;}
	.st22{fill:url(#SVGID_00000004515616832044702350000012925603676926825662_);}
	.st23{fill:#132C4D;}
	.st24{fill:#102642;}
	.st25{fill:#DE932C;}
	.st26{fill:url(#SVGID_00000177459322514510435200000009518709888849650077_);}
	.st27{fill:none;stroke:#FFFFFF;stroke-miterlimit:10;}
	.st28{fill:#F2F5FF;}
</style>
<g id="Background" class="st0">
	<rect class="st1" width="2500" height="1600"/>
</g>
<g id="Objects">
	<g>
		<path class="st2" d="M2059.97,1371c0,0-1165.18,0-1580.01,0c-252.37-270.49-49.89-389.32-197.24-534.28s-106.46-371.1-15.11-467.5
			c167.52-176.79,497.2-172.96,690.03-63.16c194.07,110.51,276.09,142.08,472.24,75.78c196.15-66.3,452.55-96.31,595.66,53.67
			c93.39,97.87,107.72,227.17,34.43,325.11c-73.28,97.93-5.98,228.71,66.51,315.4C2200.71,1164.78,2141.59,1321.31,2059.97,1371z"/>
		<g>
			<path class="st3" d="M2107.88,1039.88c39.19-52.91,97.15-15.5,29.39,97.3c-54.9,91.39-103.23,223.3-103.23,223.3
				S2039.14,1132.69,2107.88,1039.88z"/>
			<g>
				<path class="st4" d="M1960.93,421.86c-96.38,22.79-124.54,161.13-61.74,244.16c74.95,99.09-21.46,148.35,18.36,262.43
					c38.03,108.96,180.07,105.85,219.25,20.36c66.42-144.96-73.41-161.64-4.53-271.38C2186.43,591.14,2174.2,371.43,1960.93,421.86z
					"/>
				<path class="st3" d="M2067.27,746.34c-1.6,15.08-4.5,30.09-9.55,44.42c-3.3,9.36-7.55,18-12.24,26.5
					c-0.71-7.5-1.46-15-2.31-22.5c-4.13-36.72-10.17-73.1-17.8-109.2c3.73-4.67,7.6-9.21,11-14.16c4.18-6.07,8.07-12.33,11.69-18.75
					c7.39-13.09,14.03-26.33,18.94-40.57c9.74-28.22,14.09-58.21,12.83-88.04c-0.73-17.08-3.7-33.97-8.4-50.39
					c-1.05-3.67-6.4-1.73-5.55,1.88c13.31,55.95,5.93,117.6-20.51,168.78c-3.72,7.2-7.94,14.14-12.51,20.83
					c-2.95,4.31-5.9,8.7-9.12,12.87c-2.31-10.6-4.75-21.18-7.32-31.73c-1.43-5.86-10.2-2.8-8.84,2.99
					c4.52,19.26,8.39,38.68,11.69,58.2c-5.45-3.63-11.2-6.87-16.5-10.69c-7.15-5.16-13.96-10.74-20.45-16.71
					c-13.1-12.05-24.74-25.34-32.14-41.68c-1.03-2.27-4.72-1.09-3.72,1.26c6.88,16.29,17.74,30.67,30.66,42.68
					c6.63,6.17,13.8,11.78,20.97,17.3c7.36,5.66,14.45,12.05,22.33,16.96c0.12,0.08,0.25,0.12,0.37,0.18
					c7.69,48.12,12,96.86,14.04,145.56c-12.03-15.56-24.09-30.99-34.97-47.5c-13.41-20.36-25.81-41.42-36.84-63.16
					c-1.49-2.94-6.67-0.44-5.22,2.55c10.81,22.2,22.63,43.85,35.95,64.65c12.65,19.75,26.12,39.8,41.61,57.51
					c0.45,13.59,0.74,27.18,0.87,40.74c0.16,16.58,0.07,33.17-0.24,49.75c-11.23-9.96-21.9-20.31-31.51-32.2
					c-13.26-16.41-24.94-34.11-34.04-53.17c-2.04-4.28-9.12-1.98-7.08,2.4c9.16,19.72,20.17,38.61,33.7,55.66
					c11.34,14.28,24.23,28.5,38.63,40.11c-0.62,24.25-1.7,48.48-3.19,72.69c-2.66,43.26-7.23,86.47-8.56,129.8
					c-1.43,46.4,1.59,96.23,21.52,138.92c2.13,4.56,6.68,7.58,11.82,5.84c4.57-1.55,7.73-7.13,5.84-11.82
					c-7.8-19.39-13.72-39.16-16.84-59.86c-3.12-20.66-4.08-41.59-3.95-62.46c0.28-42.98,4.83-85.79,6.93-128.69
					c3.74-76.38,3.95-153.06-2.26-229.29c17.8-24.95,27.42-57.68,28.62-87.96C2075.83,742.1,2067.78,741.58,2067.27,746.34z"/>
				<path class="st2" d="M1951.58,703.28c-2.23-15.53-10.03-30.33-17.24-44.08c-7.19-13.7-15.13-27.12-21.23-41.36
					c-11.88-27.73-15.46-59.04-11.49-88.86c2.32-17.39,7.09-34.4,14.54-50.3c2.56-5.46-5.21-9.92-8.27-4.58
					c-15.75,27.49-23.5,58.81-22.73,90.47c0.8,32.9,12.37,62.59,27.73,91.21c4.38,8.16,8.81,16.3,12.76,24.68
					c3.88,8.24,6.46,16.84,9.76,25.29c1.49,3.82,4.87,6.54,9.16,5.81C1948.22,710.95,1952.17,707.41,1951.58,703.28z"/>
				<path class="st2" d="M1954.5,939.27c-31.26-43.51-16.22-98.83-7.38-146.94c0.83-4.5-5.19-5.73-6.75-1.63
					c-18.74,49.39-32.58,109.92,0.31,156.77C1946.61,955.93,1960.52,947.65,1954.5,939.27z"/>
			</g>
			<path class="st4" d="M2034.05,1360.48c0,0,126.77-153.28,207.83-185.51c81.06-32.23,35.03-98.64-34.24-64.45
				C2138.35,1144.69,2039.11,1261.81,2034.05,1360.48z"/>
			<path class="st3" d="M2034.05,1360.48c37.35-120.04,65.75-117.66,71.62-99.79s14.79,6,25.41-12.21s37.59-36.32,36.18-17
				c-1.41,19.32,32.98-30.96,41.03-17.84s-25.88,46.5-35.52,56.33s21.12,6.39,16.4,20.88c-4.73,14.49-53.02,10.05-52.82,25.45
				s29.36,1.18,8.82,21.68C2113.2,1369.88,2034.05,1360.48,2034.05,1360.48z"/>
		</g>
		<g>
			<path class="st3" d="M491.36,1014.33c42.07-56.8,104.29-16.64,31.55,104.46c-58.93,98.11-110.81,239.71-110.81,239.71
				S417.56,1113.97,491.36,1014.33z"/>
			<path class="st4" d="M412.09,1358.5c0,0,136.09-164.55,223.1-199.15c87.01-34.6,37.6-105.88-36.76-69.19
				C524.07,1126.86,417.54,1252.58,412.09,1358.5z"/>
			<path class="st4" d="M412.09,1358.5c18.47-219.69-29.23-234.57-50.57-209.4c-21.33,25.17-27.98,0-33.24-36.61
				c-5.26-36.61-37.13-83.81-47.58-51.48c-10.45,32.33-33.18-72.07-54.91-56.06c-21.74,16.02,11.39,92.63,20.57,114.95
				c9.18,22.33-38.54-3.55-40.42,23.12c-1.88,26.67,79.53,51.29,69.05,76.19c-10.48,24.9-48.49-17.45-28.63,29.41
				C277.27,1321.57,412.09,1358.5,412.09,1358.5z"/>
			<path class="st3" d="M412.09,1358.5c40.1-128.86,70.58-126.31,76.89-107.13c6.31,19.19,15.87,6.44,27.28-13.11
				c11.41-19.55,40.36-38.99,38.84-18.24c-1.52,20.74,35.41-33.24,44.05-19.15c8.64,14.09-27.78,49.92-38.13,60.47
				c-10.35,10.55,22.68,6.86,17.6,22.42s-56.92,10.78-56.7,27.32s31.52,1.26,9.47,23.27C497.07,1368.59,412.09,1358.5,412.09,1358.5
				z"/>
			<g>
				<path class="st4" d="M316.1,450.23c-97.51,23.06-125.99,163.02-62.46,247.02c75.82,100.25-21.71,150.09,18.58,265.51
					c38.48,110.23,182.18,107.09,221.81,20.59c67.2-146.66-74.27-163.53-4.59-274.56C544.25,621.49,531.87,399.21,316.1,450.23z"/>
				<path class="st3" d="M423.69,778.52c-1.62,15.26-4.55,30.44-9.66,44.94c-3.34,9.47-7.64,18.21-12.38,26.81
					c-0.72-7.59-1.48-15.18-2.33-22.76c-4.18-37.15-10.29-73.96-18.01-110.48c3.78-4.73,7.68-9.32,11.13-14.33
					c4.23-6.14,8.17-12.47,11.83-18.97c7.47-13.24,14.2-26.64,19.17-41.04c9.85-28.55,14.26-58.9,12.98-89.07
					c-0.73-17.28-3.74-34.37-8.5-50.98c-1.06-3.71-6.48-1.75-5.61,1.9c13.46,56.6,6,118.98-20.75,170.76
					c-3.76,7.28-8.03,14.31-12.66,21.07c-2.98,4.36-5.97,8.8-9.23,13.02c-2.34-10.72-4.8-21.43-7.41-32.1
					c-1.45-5.93-10.32-2.83-8.94,3.03c4.57,19.49,8.49,39.13,11.83,58.89c-5.51-3.67-11.33-6.95-16.69-10.82
					c-7.24-5.22-14.12-10.87-20.69-16.91c-13.25-12.19-25.03-25.63-32.52-42.17c-1.04-2.3-4.77-1.11-3.77,1.28
					c6.96,16.48,17.95,31.03,31.02,43.18c6.71,6.24,13.96,11.92,21.22,17.5c7.45,5.72,14.62,12.19,22.6,17.16
					c0.13,0.08,0.25,0.13,0.38,0.18c7.78,48.68,12.14,97.99,14.21,147.26c-12.17-15.75-24.38-31.35-35.38-48.06
					c-13.57-20.6-26.11-41.9-37.28-63.9c-1.51-2.97-6.75-0.44-5.28,2.58c10.94,22.46,22.9,44.36,36.37,65.4
					c12.79,19.98,26.43,40.26,42.1,58.19c0.46,13.75,0.75,27.5,0.88,41.22c0.17,16.78,0.07,33.56-0.24,50.33
					c-11.36-10.08-22.16-20.55-31.88-32.57c-13.42-16.6-25.23-34.51-34.44-53.79c-2.07-4.33-9.22-2.01-7.16,2.43
					c9.27,19.95,20.4,39.06,34.1,56.31c11.47,14.45,24.52,28.84,39.08,40.58c-0.63,24.53-1.72,49.05-3.22,73.54
					c-2.69,43.77-7.31,87.48-8.66,131.32c-1.45,46.94,1.61,97.36,21.77,140.55c2.15,4.61,6.76,7.67,11.96,5.91
					c4.62-1.57,7.82-7.21,5.91-11.96c-7.89-19.62-13.88-39.62-17.04-60.56c-3.15-20.9-4.13-42.08-3.99-63.19
					c0.28-43.48,4.89-86.79,7.02-130.2c3.79-77.27,4-154.85-2.29-231.98c18.01-25.24,27.74-58.35,28.95-88.99
					C432.35,774.22,424.2,773.69,423.69,778.52z"/>
				<path class="st2" d="M306.64,734.95c-2.26-15.71-10.15-30.68-17.44-44.59c-7.27-13.86-15.31-27.44-21.48-41.85
					c-12.02-28.06-15.64-59.74-11.63-89.91c2.34-17.6,7.18-34.81,14.71-50.89c2.59-5.52-5.27-10.03-8.37-4.64
					c-15.93,27.81-23.78,59.5-23,91.53c0.81,33.28,12.51,63.32,28.06,92.28c4.43,8.25,8.91,16.49,12.91,24.97
					c3.93,8.34,6.54,17.04,9.87,25.59c1.51,3.87,4.93,6.61,9.27,5.88C303.24,742.7,307.24,739.12,306.64,734.95z"/>
				<path class="st2" d="M309.59,973.71c-31.63-44.02-16.41-99.98-7.46-148.66c0.84-4.55-5.25-5.8-6.83-1.65
					c-18.96,49.97-32.97,111.21,0.31,158.61C301.61,990.56,315.68,982.18,309.59,973.71z"/>
			</g>
		</g>
		<g>
			<g>
				<g>
					
						<linearGradient id="SVGID_1_" gradientUnits="userSpaceOnUse" x1="1176.8182" y1="912.5723" x2="1280.6583" y2="912.5723" gradientTransform="matrix(0.9628 0.2702 -0.2702 0.9628 258.87 -288.6826)">
						<stop  offset="0" style="stop-color:#FF8455"/>
						<stop  offset="1" style="stop-color:#B12D00"/>
					</linearGradient>
					<path class="st5" d="M1205.6,885.37c-10.21-30.56-46.98-24.77-54.61,2.44c-6.76,24.1,4.17,47.64,30.37,83.95
						c41.27-17.38,62.85-31.8,69.61-55.9C1258.6,888.66,1230.22,864.59,1205.6,885.37z"/>
				</g>
				<path class="st6" d="M1169.27,923.34c-3.75-7.33-6.84-14.64-7.12-23c-0.26-7.8,1.96-15.33,5.99-21.98
					c0.96-1.58-1.44-3.44-2.65-1.98c-11.5,13.84-9.94,34.94-0.73,49.64C1166.56,928.9,1170.8,926.33,1169.27,923.34z"/>
			</g>
			<g>
				<g>
					
						<linearGradient id="SVGID_00000112620143813440618600000017842220101507339910_" gradientUnits="userSpaceOnUse" x1="974.2159" y1="1011.8837" x2="1147.4227" y2="1011.8837" gradientTransform="matrix(0.9761 -0.2172 0.2172 0.9761 -162.4201 239.479)">
						<stop  offset="0" style="stop-color:#FF8455"/>
						<stop  offset="1" style="stop-color:#B12D00"/>
					</linearGradient>
					<path style="fill:url(#SVGID_00000112620143813440618600000017842220101507339910_);" d="M1079.09,934.96
						c-39.11-36.86-88.58,0.65-78.34,46.66c9.07,40.75,43.7,66.73,110.85,99.44c46.94-58.1,67.29-96.31,58.23-137.06
						C1159.59,898,1098.88,885,1079.09,934.96z"/>
				</g>
				<path class="st6" d="M1027.84,1007.62c-4.15-6.18-8.95-11.74-11.68-18.78c-2.15-5.55-3.12-11.49-3.09-17.43
					c0.07-12.79,4.75-24.77,13.85-33.85c1.92-1.91-1.02-4.73-2.99-2.93c-22.17,20.34-21.93,55.67-0.73,76.63
					C1025.55,1013.58,1029.76,1010.47,1027.84,1007.62z"/>
			</g>
			<g>
				<g>
					
						<linearGradient id="SVGID_00000057839743894879643790000013338867577883275953_" gradientUnits="userSpaceOnUse" x1="1150.0533" y1="953.439" x2="1247.9906" y2="1051.3762">
						<stop  offset="0" style="stop-color:#FF8455"/>
						<stop  offset="1" style="stop-color:#B12D00"/>
					</linearGradient>
					<path style="fill:url(#SVGID_00000057839743894879643790000013338867577883275953_);" d="M1185.31,956.94
						c-25.61-37.77-73.54-15.8-73.54,24.23c0,35.45,23.91,63.36,73.54,102.86c49.62-39.49,73.54-67.41,73.54-102.86
						C1258.84,941.14,1210.92,919.17,1185.31,956.94z"/>
				</g>
				<path class="st6" d="M1133.07,1002.24c-4.32-6.39-7.44-12.94-7.83-20.78c-0.38-7.71,1.6-15.21,5.63-21.78
					c0.78-1.27-1.17-2.78-2.13-1.59c-11.05,13.69-12,34-0.09,47.63C1130.75,1008.13,1134.86,1004.9,1133.07,1002.24z"/>
			</g>
			<g>
				<g>
					
						<linearGradient id="SVGID_00000047060376108634765100000009536949857164367256_" gradientUnits="userSpaceOnUse" x1="1273.7029" y1="800.8783" x2="1273.7029" y2="947.4246">
						<stop  offset="0" style="stop-color:#FF8455"/>
						<stop  offset="1" style="stop-color:#B12D00"/>
					</linearGradient>
					<path style="fill:url(#SVGID_00000047060376108634765100000009536949857164367256_);" d="M1260.97,848.49
						c-37.5-18.27-65.48,20.97-47.25,52.7c16.15,28.1,47.82,39.33,105.14,48.03c21.34-53.91,27.58-86.93,11.43-115.02
						C1312.06,802.47,1264.07,806.89,1260.97,848.49z"/>
				</g>
				<path class="st6" d="M1239.81,849.63c-5.18,0.14-9.51,1.38-13.3,5.1c-4.01,3.93-6.15,9.42-7.46,14.77
					c-0.86,3.5,4.61,4.84,5.45,1.32c1.76-7.36,6.56-17.24,15.39-17.73C1242.1,852.96,1242.05,849.57,1239.81,849.63z"/>
				<path class="st6" d="M1278.38,824.22c-6.38,6.84-12.47,16.18-7.88,25.68c1.25,2.6,5.31,0.7,4.55-1.96
					c-2.29-8.01,1.13-14.78,6.27-20.84C1283.01,825.1,1280.21,822.27,1278.38,824.22z"/>
			</g>
			<g>
				<g>
					
						<linearGradient id="SVGID_00000160876000411519881230000004620064460794927793_" gradientUnits="userSpaceOnUse" x1="1362.4783" y1="846.2958" x2="1438.0828" y2="846.2958" gradientTransform="matrix(0.9628 0.2702 -0.2702 0.9628 258.87 -288.6826)">
						<stop  offset="0" style="stop-color:#FF8455"/>
						<stop  offset="1" style="stop-color:#B12D00"/>
					</linearGradient>
					<path style="fill:url(#SVGID_00000160876000411519881230000004620064460794927793_);" d="M1385.88,877.86
						c-7.43-22.25-34.2-18.03-39.76,1.78c-4.92,17.54,3.03,34.68,22.11,61.12c30.05-12.66,45.76-23.15,50.68-40.7
						C1424.47,880.25,1403.8,862.72,1385.88,877.86z"/>
				</g>
				<path class="st6" d="M1358.82,872.43c1.3-1.64-0.81-3.84-2.37-2.32c-4.7,4.56-8.14,10.23-8.97,16.82
					c-0.89,7.02,1.66,13.77,4.67,19.99c1.27,2.63,5.86,0.69,4.73-2.04c-2.21-5.38-4.98-10.8-4.71-16.79
					C1352.43,882.3,1355.28,876.88,1358.82,872.43z"/>
			</g>
			<g>
				<g>
					
						<linearGradient id="SVGID_00000108280806988245141250000003354627682192252848_" gradientUnits="userSpaceOnUse" x1="1361.8285" y1="1024.636" x2="1535.0352" y2="1024.636" gradientTransform="matrix(0.9633 0.2684 -0.2684 0.9633 296.4869 -362.3271)">
						<stop  offset="0" style="stop-color:#FF8455"/>
						<stop  offset="1" style="stop-color:#B12D00"/>
					</linearGradient>
					<path style="fill:url(#SVGID_00000108280806988245141250000003354627682192252848_);" d="M1433.7,952.5
						c-17.12-50.94-78.43-41.17-91.08,4.24c-11.21,40.21,7.1,79.45,50.91,139.94c68.78-29.12,104.74-53.23,115.94-93.44
						C1522.12,957.82,1474.7,917.75,1433.7,952.5z"/>
				</g>
				<path class="st6" d="M1405.53,928.47c-16.31-7.77-34.08-0.45-44.41,13.34c-10.26,13.7-17.49,35.43-10.55,52
					c1.57,3.75,7.67,2.19,6.22-1.78c-5.32-14.55-0.35-31.62,7.91-44.19c7.97-12.12,24.06-21.59,38.53-15.22
					C1405.98,933.84,1408.31,929.8,1405.53,928.47z"/>
			</g>
			<g>
				<g>
					
						<linearGradient id="SVGID_00000035489030826259885250000010131889598505208194_" gradientUnits="userSpaceOnUse" x1="1260.7574" y1="926.1628" x2="1359.4641" y2="1024.8695">
						<stop  offset="0" style="stop-color:#FF8455"/>
						<stop  offset="1" style="stop-color:#B12D00"/>
					</linearGradient>
					<path style="fill:url(#SVGID_00000035489030826259885250000010131889598505208194_);" d="M1288.61,931.36
						c-39.27-34.12-85.65,4.1-73.94,48.21c10.37,39.06,44.89,62.83,111.12,91.83c43.13-58.03,61.31-95.79,50.94-134.85
						C1365.02,892.44,1305.79,882.25,1288.61,931.36z"/>
				</g>
				<path class="st6" d="M1257.68,927.69c-17.38,1.21-28.6,17.01-31.81,32.99c-3.42,17.02,2,36.97,17.71,46.23
					c3.61,2.12,6.26-3.21,3.07-5.54c-12.5-9.13-17.55-24.1-14.61-39.2c2.52-12.98,11.07-28.9,25.73-30.53
					C1260.26,931.37,1260.25,927.51,1257.68,927.69z"/>
			</g>
			<g>
				<g>
					
						<linearGradient id="SVGID_00000149345184121786340020000009385242241602125190_" gradientUnits="userSpaceOnUse" x1="1445.0139" y1="972.1414" x2="1602.9159" y2="972.1414" gradientTransform="matrix(0.9633 0.2684 -0.2684 0.9633 296.4869 -362.3271)">
						<stop  offset="0" style="stop-color:#FF8455"/>
						<stop  offset="1" style="stop-color:#B12D00"/>
					</linearGradient>
					<path style="fill:url(#SVGID_00000149345184121786340020000009385242241602125190_);" d="M1519.05,927.6
						c-15.61-46.44-71.5-37.53-83.04,3.86c-10.22,36.66,6.47,72.43,46.41,127.58c62.7-26.55,95.48-48.53,105.7-85.19
						C1599.66,932.45,1556.43,895.92,1519.05,927.6z"/>
				</g>
				<path class="st6" d="M1469.8,903.99c-15.32,5-27.04,18.68-28.3,34.97c-0.26,3.38,5.56,4.06,5.98,0.64
					c1.68-13.83,10.15-26.31,23.63-31.06C1473.98,907.54,1472.73,903.03,1469.8,903.99z"/>
			</g>
			
				<linearGradient id="SVGID_00000160887239064746789940000008183782515200663998_" gradientUnits="userSpaceOnUse" x1="1297.8796" y1="1123.1355" x2="1297.8796" y2="1364.1334">
				<stop  offset="0" style="stop-color:#C27926"/>
				<stop  offset="1" style="stop-color:#DC8F2A"/>
			</linearGradient>
			
				<rect x="1018.73" y="1022.28" style="fill:url(#SVGID_00000160887239064746789940000008183782515200663998_);" width="558.3" height="330.27"/>
			<polygon class="st15" points="1577.03,1022.28 1018.73,1022.28 950.63,1138.04 1645.13,1138.04 			"/>
		</g>
		<rect x="180.87" y="1352.54" class="st3" width="2138.27" height="18.46"/>
		<g>
			<g>
				<g>
					<g>
						<path class="st16" d="M1165.23,1303.06c0,0,13.89,28.78,8.93,49.62c-41.68,0-100.23,0-100.23,0s0-12.9,17.86-17.86
							c17.86-4.96,45.65-22.83,45.65-22.83L1165.23,1303.06z"/>
						<path class="st16" d="M984.76,1303.06c0,0,13.89,28.78,8.93,49.62c-41.68,0-100.23,0-100.23,0s0-12.9,17.86-17.86
							c17.86-4.96,45.65-22.83,45.65-22.83L984.76,1303.06z"/>
						<path class="st17" d="M1110,919.99c4.61,19.85,17.51,51.61,5.61,88.33c-11.91,36.72,3.87,140.92,4.91,148.86
							c1.04,7.94,53.64,113.14,53.64,155.81c0,0-28.78,14.89-45.65,4.96c-32.39-60.68-91.84-200.83-101.23-249.1
							c-16.87,42.67-23.82,87.33-23.82,87.33s11.91,33.74,0,72.45c-11.91,38.7-6.95,86.34-6.95,86.34s-43.93,18.86-49.75-8.93
							c0.13-86.34-5.24-166.73,7.87-255.05c13.11-88.33,19.06-131,19.06-131H1110z"/>
						<path class="st17" d="M994.76,1214.81c8.37-28.08-5.51-60.75-5.51-60.75s10.32-37.83,16.05-68.2
							c5.73-30.37,6.6-93.42,6.6-93.42s6.58,48.14,15.38,76.4c-16.87,42.67-23.82,87.33-23.82,87.33s11.91,33.74,0,72.45
							c-11.91,38.7-6.95,86.34-6.95,86.34s-3.59,1.54-8.86,3.09C974.72,1288.97,986.7,1241.85,994.76,1214.81z"/>
						<path class="st6" d="M1068.4,958.54h0.88c0,0.37,0.26,37.03,22.5,47.84c0.25-22.62-0.15-44.43-1.48-56.08l0.88-0.1
							c2.3,20.12,1.85,70.47,0,103.06c-1.84,32.57,4.46,89.99,15.35,115.21c1.25,2.9,2.88,6.59,4.79,10.92
							c15.71,35.59,48.4,109.64,47.34,139.64l-0.88-0.03c1.06-29.81-31.58-103.73-47.26-139.26c-1.91-4.33-3.55-8.03-4.8-10.93
							c-10.94-25.33-17.27-82.95-15.42-115.61c0.76-13.4,1.28-29.8,1.47-45.86C1068.67,996.54,1068.4,958.92,1068.4,958.54z"/>
					</g>
					<g>
						<path class="st18" d="M954.04,924.9c-1.2,7.43,2,14.89,8.23,19.11c15.53,10.5,43.5,22.22,72.05,22.22
							c36.64,0,94.61-15.23,95.57-21.34c0.96-6.11-12.3-49.14-19.05-78.39c19.61-25.07,37.93-59.14,28.93-93.53
							s-35.03-48.21-51.11-51.75l-34.39,5.46c0,0-42.74,6.73-61.72,37.99C976.77,790.65,959.44,891.55,954.04,924.9z"/>
						<path class="st18" d="M998.5,888.6c51.27,21.92,93.15,2.83,112.34-22.1l3.9,15.85C1114.74,882.36,1055.17,934.36,998.5,888.6z
							"/>
						<path class="st6" d="M1022.44,848.85c24.87,0,46.18-7.83,66.63-54.22l-0.81-0.35c-23.05,52.31-47.18,55.11-76.33,53.33
							l-0.05,0.88C1015.47,848.69,1018.99,848.85,1022.44,848.85z"/>
					</g>
				</g>
				<g>
					<g>
						<path class="st19" d="M1042.7,641.01c-12.54,16.07-21.86,52.71,0,66.53c19.9,12.58,41.14-1.29,48.53-10.29
							c5.79,6.43,20.25-3.21,18.64-12.21c-1.61-9-9-9.32-13.18-4.18c-3.54-1.61-4.5-9-3.54-13.5c0.96-4.5,1.29-9,0-11.57
							c0,0-1.61-4.5-8.36-4.82c-6.75-0.32-12.68-0.32-15.02-6.11c-2.34-5.79-8.12-6.11-11.34-3.86
							C1055.23,643.26,1047.84,647.44,1042.7,641.01z"/>
						<path class="st16" d="M1096.7,680.87c-3.54-1.61-4.5-9-3.54-13.5c0.96-4.5,1.29-9,0-11.57c0,0-1.61-4.5-8.36-4.82
							c-6.75-0.32-12.68-0.32-15.02-6.11c-2.34-5.79-8.12-6.11-11.34-3.86c-3.21,2.25-10.61,6.43-15.75,0
							c-5.14-7.71-12.54-27.96-3.21-40.18c9.32-12.21,26.36-10.61,30.3,0c3.95,10.61,10.2,13.18,16.3,15.11
							c12.45,3.93,27.96,12.54,29.57,27c9.45,6.2,9.39,29.77-6.15,40.53C1107.37,676.03,1100.62,676.04,1096.7,680.87z"/>
						<path class="st19" d="M1078.57,706.73c-2.53,5.99,3.34,18.9,10.09,24.23c-4.5,10.16-26.36,14.22-34.39,4.32
							c5.46-15.24,5.33-22.61-1.1-28.46C1046.74,700.99,1078.57,706.73,1078.57,706.73z"/>
						<path class="st20" d="M1078.54,714.29c-4.18,3.77-13.66,9.34-20.93,9.43c0.87-4.63,0.75-8.24-0.43-11.26
							c7.71,0.63,15.06-1.64,21.14-4.92C1077.8,709.4,1077.94,711.76,1078.54,714.29z"/>
					</g>
					<path class="st21" d="M1064.31,599.07c3.52,2.94,4.34,7.29,6.09,11.3c2.51,5.77,7.73,7.12,13.23,9
						c9.74,3.34,18.57,7.92,25.22,15.94c0.81,0.97-0.57,2.36-1.42,1.39c-7.76-8.86-19.13-11.83-29.77-15.66
						c-3.83-1.38-7.24-3.3-9.37-6.89c-2.47-4.17-2.83-9.19-6.38-12.73C1060.32,599.87,1062.67,597.7,1064.31,599.07z
						 M1109.59,672.69c7.28-6.19,9.51-16.33,5.78-25.07c-0.49-1.15-2.48-0.36-2.04,0.79c3.02,7.97,0.73,16.68-5.85,22.12
						C1105.99,671.77,1108.11,673.95,1109.59,672.69z"/>
				</g>
			</g>
			
				<linearGradient id="SVGID_00000103232071508121832590000017225974902777883572_" gradientUnits="userSpaceOnUse" x1="764.5062" y1="740.4172" x2="764.5062" y2="888.4176" gradientTransform="matrix(-1 0 0 1 1645.6537 0)">
				<stop  offset="0" style="stop-color:#C27926"/>
				<stop  offset="1" style="stop-color:#DC8F2A"/>
			</linearGradient>
			<polygon style="fill:url(#SVGID_00000103232071508121832590000017225974902777883572_);" points="765.78,904.6 996.52,904.6 
				996.52,721.22 765.78,721.22 			"/>
			<path class="st19" d="M908.07,853.99c5.95,4.09,34.24,14.33,34.24,14.33s31.63,15.07,56.2,20.28
				c12.28-8.56,13.4-30.14,13.4-40.57c0,0-42.43-1.49-50.24-2.98c-7.82-1.49-11.16-35.73-14.14-39.08c-2.98-3.35-6.33,0-5.95,7.44
				c0.37,7.44-0.37,13.4-3.72,13.4c-3.35,0-23.82-32.38-26.8-32.38c-2.98,0,1.86,13.77,7.07,23.45c5.21,9.68-20.84-12.28-23.82-9.3
				c-2.98,2.98,19.35,16.75,17.49,19.35s-29.22-8.22-28.66-4.84c1.12,6.7,26.05,10.79,23.82,15.63c-2.23,4.84-26.05-2.61-25.31,2.79
				C882.39,846.92,908.07,853.99,908.07,853.99z"/>
			<g>
				<path class="st19" d="M781.66,817.77c4.96-5.95,10.42-28.28,11.91-33.74c1.49-5.46,5.46,0,6.45,5.46
					c0.99,5.46-1.98,11.91,4.96,13.89s30.76-26.3,34.24-23.82c3.47,2.48-20.84,25.8-18.86,28.28c1.98,2.48,33.74-17.86,37.22-13.4
					c3.47,4.47-33.25,19.85-31.76,23.32c1.49,3.47,30.73-9.71,31.99-4.85c1.26,4.85-29.01,11.8-29.01,14.78
					c0,2.98,24.81,3.09,24.81,6.51c0,3.42-26.8,3.42-26.8,3.42s-19.35,16.75-41.68,3.91l-15.88,12.96l-10.92-29.28L781.66,817.77z"
					/>
				<g>
					<g>
						<path class="st16" d="M628.83,646.57c4.81,16.65-4.96,35.23-19.85,40.19c-14.89,4.96-49.12,48.63,13.4,81.87
							c25.8-10.92,117.6-28.28,117.6-28.28c17.37-20.34-8.44-36.22-0.5-59.54c2.74-8.04,16.87-14.89,13.4-33.25
							c-2.51-13.25-18.02-14.57-16.37-21.34c2.51-10.3,3.97-24.96-9.67-24.64c-13.64,0.32-2.81-14.98-22.24-22.31
							c-17.74-6.69-34.48,1.5-42.24,10.63c-7.48,8.81-10.99,19.64-21.82,22.51C629.7,615.29,622.85,625.91,628.83,646.57z"/>
						<path class="st21" d="M699.42,582.9c4.13,0.71,7.84,1.86,10.46,5.31c3,3.95,4.44,14.48,10.24,14.92
							c0.98,0.07,1.26,1.61,0.19,1.8c-4.49,0.79-6.94-2.61-8.49-6.4c-1.12-2.73-2.24-5.52-3.95-7.94c-2.31-3.28-5.58-4.04-9.29-4.8
							C696.68,585.39,697.55,582.58,699.42,582.9z M731.56,629.25c0.35,1.22,2.05,0.76,1.88-0.46c-0.83-6.14,4.71-12,0.34-17.73
							c-1.02-1.34-3.21,0.36-2.35,1.75C734.53,617.81,729.98,623.79,731.56,629.25z M736.4,711.7c0.92,1.24,2.74,0.28,2.12-1.17
							c-4.91-11.55-6.35-23.36,0.44-34.59c5.06-8.38,12.62-17.23,8.22-27.56c-0.84-1.96-4.19-0.62-3.48,1.36
							c4.33,12.18-8.54,22.07-11.46,33.19C729.78,692.23,730.49,703.76,736.4,711.7z M671.88,624.23
							c11.34,4.65,19.59-7.54,29.36-10.69c1.08-0.35,0.71-1.97-0.42-1.73c-9.7,2.13-17.54,13.22-28.1,9.48
							C670.83,620.62,670.09,623.5,671.88,624.23z"/>
					</g>
					<path class="st18" d="M600.76,992.5c-2.25,4.76,19.56,22.1,36.9,25.52c3.15-7.62-2.1-32.32-2.1-32.32
						S605.38,982.74,600.76,992.5z"/>
					<g>
						<g>
							<path class="st19" d="M765.78,1223.01c0,0-8.94,74.01-4.42,93.22c17.32,20.69,49.42,20.69,52.11,37.69
								c-43.6,0-93.81-4.43-93.81-4.43s-6.72-20.69,7.71-38.43c2.67-54.68-3.37-107.72-3.37-107.72L765.78,1223.01z"/>
							<path class="st18" d="M813.47,1353.93c0,0,2.93-9.98-9.72-15.76c-12.66-5.78-32.57-15.97-35.51-19.14
								c-2.94-3.18-5.62-5.62-12.66-1.41c-7.03,4.22,0.7,16.49-7.73,17.03c-5.73,0.37-12.67-0.57-19.37-2.56
								c-3.16-0.94-3.87-7.68-7.65-9.73c-3.52,7.31-4.41,22.1-1.18,27.13C739.07,1353.93,813.47,1353.93,813.47,1353.93z"/>
						</g>
						<g>
							<path class="st19" d="M656.43,1225.52c0,0-28.82,70.77-27.34,89.98c14.04,20.69,50.99,21.43,50.99,38.43
								c-43.6,0-93.11-4.43-93.11-4.43s-3.45-20.69,13.79-38.43c11.33-54.68,12.07-107.72,12.07-107.72L656.43,1225.52z"/>
							<path class="st18" d="M681.14,1355.09c0,0,2.93-9.98-9.72-15.76c-12.66-5.78-32.57-15.97-35.51-19.14
								c-2.94-3.18-5.62-5.62-12.66-1.41c-7.03,4.22,0.7,16.49-7.73,17.03c-5.73,0.37-12.67-0.57-19.37-2.56
								c-3.16-0.94-3.87-7.68-7.65-9.73c-3.52,7.31-4.41,22.1-1.18,27.13C606.73,1355.09,681.14,1355.09,681.14,1355.09z"/>
						</g>
						<g>
							<path class="st23" d="M766.24,1232.21c0-0.23-2.1,20.02-2.1,20.02s-7.36,3.53-18.86,3.53c-11.5,0-19.01-3.08-19.01-3.08
								l-1.05-19.42L766.24,1232.21z"/>
							<path class="st23" d="M657.01,1228.58l-9.05,19.61c0,0-28.02,7.2-38.95-12.04c0.66-11.37,2.07-23.53,2.07-23.53
								L657.01,1228.58z"/>
							<path class="st17" d="M768.75,986.09c6.22,26.27,11.8,156.04,5.83,232.57c-0.75,9.65-8.2,17.44-17.81,18.57
								c-9.68,1.14-19.01,0.73-26.63-0.14c-10.44-1.19-18.33-10-18.5-20.5c-0.55-35.66-2.55-116.59-9.41-138.86
								c-10.16,48.66-25.35,108.53-32.97,137.92c-2.94,11.34-13.86,18.75-25.47,17.19c-8.31-1.11-17.96-3.4-26.7-7.95
								c-10.13-5.27-15.5-16.64-13.35-27.86c12.82-66.63,26.65-197.36,24.59-222.02C687.47,966.88,768.75,986.09,768.75,986.09z"/>
							<path class="st24" d="M716.16,1082.83c1.6,29.91,3.99,67.8,4.39,85.75c0.34,15.31-2.22,49.99-1,64.09
								c-4.75-3.8-7.8-9.62-7.9-16.08c-0.55-35.66-2.55-116.59-9.41-138.86c3.55-15.63,9.53-59.71,9.53-59.71
								S714.56,1052.92,716.16,1082.83z"/>
							<path class="st6" d="M611.9,1203.66c1.24-3.44,2.78-7.73,4.36-14.24l0.42-1.72c5.04-20.7,20.37-83.71,21.55-117.65
								c1.2-34.64,3.71-81.43,3.74-81.9l0.87,0.05c-0.02,0.33-1.26,23.5-2.42,49.27c8.41-2.73,17.54-27.55,17.54-43.2h0.87
								c0,14.99-8.89,41.56-18.46,44.12c-0.47,10.63-0.93,21.67-1.28,31.69c-1.18,34.03-16.53,97.1-21.57,117.83l-0.42,1.72
								c-1.59,6.55-3.14,10.87-4.39,14.33c-2.07,5.74-3.21,8.91-1.97,15.73l-0.86,0.16C608.62,1212.78,609.79,1209.54,611.9,1203.66
								z"/>
						</g>
					</g>
					<path class="st18" d="M765.78,818.37c0,0,7.44,15.77,8.93,41.07l-6.45,6.95c0,0,13.23,63.73,17.53,105.13
						c1.29,12.42-6.92,23.83-19.11,26.56c-51.11,11.43-93.56,1.22-111.56-3.17c-20.34-4.96-45.16-10.92-55.08-4.96
						c8.93-30.77,20.34-96.26,16.87-118.1c-13.4-8.44-20.84-50.61-12.41-79.89c8.44-29.28,24.31-42.67,40.69-50.61
						c16.37-7.94,48.63-21.4,72.45-20.13c23.82,1.27,48.13,18.41,48.13,18.41V818.37z"/>
					<g>
						<path class="st19" d="M706.73,686.77c-4.17,7.12-3.47,29.77,9.43,39.7c-15.88,14.89-36.81,1.14-36.81,1.14
							s12.5-19.5,3.07-40.84C692.84,681.81,706.73,686.77,706.73,686.77z"/>
						<path class="st20" d="M704.99,705.21c-6.4,2.73-13.17,2.55-19.07-0.73c0.12-5.46-0.76-11.5-3.5-17.71
							c10.42-4.96,24.31,0,24.31,0C704.68,690.27,703.81,697.54,704.99,705.21z"/>
						<path class="st19" d="M646.96,661.82c-0.83,6.07,4.13,13.78,10.65,10.06c4.96,14.39,34.24,33.25,56.57,16.37s10.42-54.58,0-66
							c0,0-10.36-8.18-16.42-2.4c-6.06,5.78-12.39,9.91-20.1,7.43c-7.71-2.48-14.87,7.98-14.04,12.11c0.83,4.13,2.48,20.1-4.13,22.3
							c-0.55-0.74-1.05-1.46-1.5-2.13C654.99,655.02,647.7,656.42,646.96,661.82z"/>
					</g>
					<path class="st6" d="M651.75,798.39c0,13.62,9.78,31.69,25.59,37.11c19.1,6.56,65.96-5.85,88-14.29v0.93
						c-17.86,6.8-51.48,16.05-74.02,16.05c-5.56,0-10.46-0.57-14.26-1.87c-16.17-5.55-26.18-24.01-26.18-37.94H651.75z"/>
					<path class="st18" d="M767.77,869.83c-11.45,8.76-97.86,45.94-150.26,5.42c0.58,6.71,0.6,13.09,0.6,13.09
						c21.99,14.08,47.11,19.43,84.14,12.75C734.55,895.26,762.82,874.26,767.77,869.83z"/>
				</g>
			</g>
			
				<rect x="758.34" y="715.63" transform="matrix(-1 -1.224647e-16 1.224647e-16 -1 1762.295 1463.7032)" class="st25" width="245.62" height="32.44"/>
		</g>
		<g>
			<g>
				<g>
					
						<linearGradient id="SVGID_00000008838927207899994050000009704803909933110152_" gradientUnits="userSpaceOnUse" x1="1384.4392" y1="647.5425" x2="1486.1936" y2="749.2968">
						<stop  offset="0" style="stop-color:#FF8455"/>
						<stop  offset="1" style="stop-color:#B12D00"/>
					</linearGradient>
					<path style="fill:url(#SVGID_00000008838927207899994050000009704803909933110152_);" d="M1439.67,676.51
						c-21.18-31.23-60.81-13.06-60.81,20.04c0,29.32,19.78,52.4,60.81,85.07c41.04-32.66,60.81-55.75,60.81-85.07
						C1500.49,663.45,1460.86,645.28,1439.67,676.51z"/>
				</g>
				<path class="st6" d="M1405.69,665.91c-21.83,12.45-22.49,41.46-7.2,59.43c2.83,3.33,7.27-1.48,4.68-4.78
					c-11.95-15.2-12.62-38.91,5.14-50.23C1411.1,668.55,1408.57,664.27,1405.69,665.91z"/>
			</g>
			<g>
				<path class="st19" d="M1585.44,729.01c-9.71,0.82-62.95-11.01-62.95-11.01s-15.35-20.75-23.82-21.05
					c-16.1,10.81-23.38,11.43-22.45,17.07c0.94,5.64,20.08,0.2,20.08,0.2s-1.19,6.34-5.25,14.35c-5.12,10.1-8.91,13.28-8.91,13.28
					s26.08,7.1,34.13,0.84c11.23,3.57,63.91,23.48,63.91,23.48L1585.44,729.01z"/>
				<g>
					<path class="st16" d="M1927.92,1285.15c0,0,27.4,19.26,29.63,27.4c-8.89,14.81-20,20-25.92,28.88
						c-5.93,8.89-18.52,11.11-31.11,11.11c-12.59,0-28.7,0-28.7,0s-0.18-10.37,14.63-14.81c14.81-4.44,24.44-22.22,22.22-37.77
						S1927.92,1285.15,1927.92,1285.15z"/>
					<path class="st16" d="M1742.02,1306.63c0,0,10.37,29.62,5.92,41.48c-15.55,0-34.07,1.48-46.66,4.44s-46.66,0-46.66,0
						s-0.74-14.07,13.33-14.07c14.07,0,45.18-31.85,45.18-31.85H1742.02z"/>
					<g>
						<path class="st17" d="M1693.57,914.7c-6.52,38.67-9.32,346.75,1.3,397.94c0,0,37.52,12.51,54.55-5.26
							c-2.22-43.7-0.74-176.41,8.89-209.74c12.59,39.25,101.47,192.71,140.72,210.48c19.26,1.48,40.73-25.18,40.73-25.18
							c-25.92-22.22-80.73-136.42-94.06-158.64s-16.29-48.14-17.78-66.66c-1.48-18.52,16.3-105.27,11.85-155.58
							C1733.13,905.07,1693.57,914.7,1693.57,914.7z"/>
						<path class="st24" d="M1745.44,916.96h-10.16c0,0,3.7,73.63,2.47,151.75c-1.29,81.6-7.41,212.39-1.49,246.32
							c4.95-1.45,9.53-3.86,13.17-7.66c-2.22-43.7-0.74-176.41,8.89-209.74C1748.07,1062.13,1743.69,933.11,1745.44,916.96z"/>
					</g>
				</g>
				<g>
					<path class="st18" d="M1679.91,917.87c-5.87-3.72-7.8-11.38-4.41-17.45c9.8-17.57,28.23-54.24,23.61-74.22
						c-6.22-26.91-120.32-54.65-120.32-54.65c-8.65-12.33-7.34-30.22,6.15-47.05c25.33,6.31,109.12,17.03,141.45,1.24
						c15.55-7.59,62.52-10.46,87.38-5.57c29.84,5.87,49.31,26.42,65.06,86.02c8.89,33.63,0.09,80.9-9.74,96.83
						c-3.9,6.32-19.59,2.79-19.59,2.79s6.38,21.62-5.85,36.49C1750.5,953.53,1699.86,930.52,1679.91,917.87z"/>
					<path class="st18" d="M1706.31,781.71c0,0-5.63,17.71-15.89,15.16c-9.74-2.43-89.03-30.09-115.75-33.82
						c0.92,3.04,2.29,5.9,4.12,8.5c0,0,114.1,27.75,120.32,54.65c1.09,4.71,0.89,10.35-0.17,16.45l0,0
						C1705.79,811.72,1708.82,790.81,1706.31,781.71z"/>
				</g>
				<path class="st19" d="M1818.77,886.48c-3.8,10.32-9.64,22.02-15.07,29.36c-5.43,7.35-30.33,1.12-35,6.85
					c-2.46,3.01,5.31,9.01,14.86,10.01c9.55,0.99,1.69,22.92-15.05,36.01c-16.74,13.09-5.23,15.35,5.47,5.95
					c10.71-9.41,22.27-16.43,17.78-9.35c-4.49,7.09-20.22,17.28-18.17,20.34c2.05,3.06,25.95-12.61,29.42-19.01
					c-5.5,12.2-18.51,19.83-18.41,23.83c0.1,4,15.92-4.4,23.54-18.4c-2.51,12.79-9.61,19.63-9.2,22.01
					c0.42,2.39,14.62-6.78,19.13-34.23c16.1-27.83,31.44-54.04,31.44-54.04S1831.68,899.65,1818.77,886.48z"/>
				<path class="st27" d="M1699.31,840.35c3.41-15.75,12.67-48.58,4.69-79.52"/>
				<path class="st27" d="M1818.77,886.49c-1.86-2.16-3.46-4.51-4.66-7.04c7.92-19.91,23.25-60.89-4.42-97.83"/>
				<g>
					<path class="st16" d="M1695.42,653.46c-10.89-5.06-23.1-29.84-13.61-46.16c6.12-10.53,20.63-0.54,32.54-4.32
						s25.91-2.11,34.24,3.13c0,0,18.79-3.64,24.12,15.05c5.33,18.69-4.61,49.51-4.61,49.51l-21.1,13.49L1695.42,653.46"/>
					<path class="st19" d="M1727.6,703.29c7.23,6.41,7.83,17.63,2.19,24.88c-1.79,2.3-1.15,5.63,1.38,7.08
						c11.5,6.59,28.41,3.09,34.26-9.54c-10.23-14.55-17.17-32.03-17.17-32.03L1727.6,703.29z"/>
					<path class="st20" d="M1733.26,713.49c4.46,0.6,8.69,0.53,12.99-0.94c3.3-1.13,6.06-2.78,8.57-4.67
						c-4.12-8.04-6.56-14.19-6.56-14.19l-20.66,9.61C1730.69,706.04,1732.57,709.67,1733.26,713.49z"/>
					<path class="st19" d="M1700.15,642.36c-2.14-0.3-3.74,2.13-4.04,4.26c-2.31,16.36-2.08,51.38,25.52,58.85
						c24.53,6.64,38.91-11.14,43.26-17.69c0.91-1.36,2.4-2.2,4.04-2.27c4.22-0.17,12.17-1.59,13.45-9.73
						c1.62-10.3-11.24-15.91-19.24-7.49c-1.75,1.85-4.6,2.2-6.67,0.71c-3.79-2.73-4.03-7.87-3.68-11.34
						c0.21-2.04-0.82-3.98-2.61-4.97c-1.34-0.74-5.11-4.55-6.48-8c-1.37-3.44-0.35-6.51-4.75-9.07
						C1724.49,627.26,1709.24,643.66,1700.15,642.36z"/>
					<path class="st21" d="M1691.56,645.43c-4.13-4.89-7.09-10.7-8.8-16.86c-1.51-5.45-2.7-12.05,0.85-16.96
						c1.12-1.55,3.53-0.32,2.65,1.47c-4.86,9.85,2.05,22.44,7.29,30.79C1694.32,645.07,1692.51,646.54,1691.56,645.43z
						 M1738.01,606.51c-5.18-3.31-10.91-2.16-16.49-0.61c-8.63,2.39-16.04,1.83-24.85,0.65c-0.88-0.12-1.23,1.13-0.33,1.37
						c6.33,1.72,12.77,3.06,19.35,2.05c7.06-1.08,14.15-5.18,20.99-1.04C1738.2,609.86,1739.5,607.46,1738.01,606.51z"/>
				</g>
			</g>
		</g>
		<path class="st28" d="M675.57,367.1c-31.9,11.32-5.46,33.87-41.52,52.45c-36.06,18.58-61.19,47.63-37.15,73.53
			c24.04,25.9,112.54-34.63,135.49,0c22.95,34.64,93.99,35.47,133.31,6.65c39.33-28.83,108.21,9.42,100.54-40.85
			c-7.67-50.26-65.58-15.3-98.36-46.98c-32.78-31.69-81.95-44.8-104.9-30.59C740.04,395.51,706.36,356.17,675.57,367.1z"/>
		<path class="st28" d="M1414.84,451.4c-23.47,22.3-85.12-12.35-86.46,30.18s83.86,20.67,92.02,44.63
			c8.16,23.96,66.7,30.82,99.85-11.71c14.33-18.38,39.09-21.02,62.25-22.89c30.43-2.45,58.08-3.57,55.61-37.29
			c-2.71-36.95-51.69-34.18-76.35-23.43c-19.29,8.41-34.03,27.73-50.89,20.51C1472.46,434.94,1442.28,425.33,1414.84,451.4z"/>
	</g>
</g>
</svg>
