<svg width="31" height="31" viewBox="0 0 31 31" fill="none" xmlns="http://www.w3.org/2000/svg">
<rect x="0.972656" y="0.604736" width="30" height="30" rx="5" fill="#00AEEF"/>
<path d="M13.0687 21.6047C12.5247 21.6047 12.2527 21.3541 12.2527 20.8527C12.2527 20.5861 12.3967 20.2981 12.6847 19.9887L16.0927 16.3407C16.6153 15.7861 16.9887 15.2794 17.2127 14.8207C17.4473 14.3514 17.5647 13.8821 17.5647 13.4127C17.5647 12.1967 16.85 11.5887 15.4207 11.5887C14.994 11.5887 14.578 11.6527 14.1727 11.7807C13.778 11.9087 13.3887 12.1167 13.0047 12.4047C12.8127 12.5434 12.6313 12.5914 12.4607 12.5487C12.3007 12.4954 12.1727 12.3887 12.0767 12.2287C11.9913 12.0687 11.9593 11.8981 11.9807 11.7167C12.0127 11.5247 12.1247 11.3594 12.3167 11.2207C12.754 10.8901 13.2607 10.6341 13.8367 10.4527C14.4127 10.2714 14.9993 10.1807 15.5967 10.1807C16.7593 10.1807 17.65 10.4474 18.2687 10.9807C18.898 11.5141 19.2127 12.2767 19.2127 13.2687C19.2127 13.9407 19.0473 14.5967 18.7167 15.2367C18.3967 15.8767 17.89 16.5594 17.1967 17.2847L14.3967 20.2127H19.0527C19.5433 20.2127 19.7887 20.4421 19.7887 20.9007C19.7887 21.3701 19.5433 21.6047 19.0527 21.6047H13.0687Z" fill="white"/>
</svg>
