<svg width="31" height="31" viewBox="0 0 31 31" fill="none" xmlns="http://www.w3.org/2000/svg">
<rect x="0.972656" y="0.604736" width="30" height="30" rx="5" fill="#662D91"/>
<path d="M17.6287 21.7167C17.3727 21.7167 17.17 21.6474 17.0207 21.5087C16.8713 21.3594 16.7967 21.1567 16.7967 20.9007V19.3167H12.5087C12.242 19.3167 12.0287 19.2581 11.8687 19.1407C11.7087 19.0234 11.6287 18.8474 11.6287 18.6127C11.6287 18.4634 11.666 18.3087 11.7407 18.1487C11.8153 17.9887 11.938 17.7807 12.1087 17.5247L16.7647 10.7567C16.882 10.5754 17.0153 10.4421 17.1647 10.3567C17.314 10.2607 17.4847 10.2127 17.6767 10.2127C17.9007 10.2127 18.082 10.2821 18.2207 10.4207C18.37 10.5487 18.4447 10.7514 18.4447 11.0287V17.9247H19.4527C19.954 17.9247 20.2047 18.1541 20.2047 18.6127C20.2047 19.0821 19.954 19.3167 19.4527 19.3167H18.4447V20.9007C18.4447 21.4447 18.1727 21.7167 17.6287 21.7167ZM16.7967 17.9247V12.9007L13.3567 17.9247H16.7967Z" fill="white"/>
</svg>
