<svg width="31" height="31" viewBox="0 0 31 31" fill="none" xmlns="http://www.w3.org/2000/svg">
<rect x="0.847656" y="0.604736" width="30" height="30" rx="5" fill="#01A69A"/>
<path d="M15.8237 21.7487C15.2263 21.7487 14.629 21.6687 14.0317 21.5087C13.445 21.3381 12.9063 21.0767 12.4157 20.7247C12.213 20.5967 12.0903 20.4367 12.0477 20.2447C12.0157 20.0527 12.0423 19.8821 12.1277 19.7327C12.2237 19.5727 12.357 19.4661 12.5277 19.4127C12.709 19.3487 12.9063 19.3861 13.1197 19.5247C13.941 20.0687 14.8317 20.3407 15.7917 20.3407C16.5277 20.3407 17.1037 20.1434 17.5197 19.7487C17.9357 19.3434 18.1437 18.8154 18.1437 18.1647C18.1437 17.4927 17.9463 16.9434 17.5517 16.5167C17.157 16.0901 16.6077 15.8767 15.9037 15.8767C15.4983 15.8767 15.1143 15.9514 14.7517 16.1007C14.3997 16.2394 14.069 16.4741 13.7597 16.8047C13.6743 16.8901 13.5677 16.9701 13.4397 17.0447C13.3223 17.1087 13.1943 17.1407 13.0557 17.1407C12.597 17.1407 12.3677 16.9221 12.3677 16.4847V11.0607C12.3677 10.5701 12.613 10.3247 13.1037 10.3247H18.4637C18.9543 10.3247 19.1997 10.5541 19.1997 11.0127C19.1997 11.4821 18.9543 11.7167 18.4637 11.7167H13.9837V15.2847C14.581 14.7621 15.3383 14.5007 16.2557 14.5007C16.9703 14.5007 17.589 14.6501 18.1117 14.9487C18.6343 15.2474 19.0397 15.6687 19.3277 16.2127C19.6157 16.7461 19.7597 17.3701 19.7597 18.0847C19.7597 18.8101 19.5997 19.4501 19.2797 20.0047C18.9597 20.5487 18.5063 20.9754 17.9197 21.2847C17.333 21.5941 16.6343 21.7487 15.8237 21.7487Z" fill="white"/>
</svg>
