<svg width="31" height="31" viewBox="0 0 31 31" fill="none" xmlns="http://www.w3.org/2000/svg">
<rect x="0.972656" y="0.604736" width="30" height="30" rx="5" fill="#FC642D"/>
<path d="M15.9487 21.7487C15.3513 21.7487 14.754 21.6687 14.1567 21.5087C13.57 21.3381 13.0313 21.0767 12.5407 20.7247C12.338 20.5967 12.2153 20.4367 12.1727 20.2447C12.1407 20.0527 12.1673 19.8821 12.2527 19.7327C12.3487 19.5727 12.482 19.4661 12.6527 19.4127C12.834 19.3487 13.0313 19.3861 13.2447 19.5247C14.066 20.0687 14.9567 20.3407 15.9167 20.3407C16.6527 20.3407 17.2287 20.1434 17.6447 19.7487C18.0607 19.3434 18.2687 18.8154 18.2687 18.1647C18.2687 17.4927 18.0713 16.9434 17.6767 16.5167C17.282 16.0901 16.7327 15.8767 16.0287 15.8767C15.6233 15.8767 15.2393 15.9514 14.8767 16.1007C14.5247 16.2394 14.194 16.4741 13.8847 16.8047C13.7993 16.8901 13.6927 16.9701 13.5647 17.0447C13.4473 17.1087 13.3193 17.1407 13.1807 17.1407C12.722 17.1407 12.4927 16.9221 12.4927 16.4847V11.0607C12.4927 10.5701 12.738 10.3247 13.2287 10.3247H18.5887C19.0793 10.3247 19.3247 10.5541 19.3247 11.0127C19.3247 11.4821 19.0793 11.7167 18.5887 11.7167H14.1087V15.2847C14.706 14.7621 15.4633 14.5007 16.3807 14.5007C17.0953 14.5007 17.714 14.6501 18.2367 14.9487C18.7593 15.2474 19.1647 15.6687 19.4527 16.2127C19.7407 16.7461 19.8847 17.3701 19.8847 18.0847C19.8847 18.8101 19.7247 19.4501 19.4047 20.0047C19.0847 20.5487 18.6313 20.9754 18.0447 21.2847C17.458 21.5941 16.7593 21.7487 15.9487 21.7487Z" fill="white"/>
</svg>
