<svg width="31" height="31" viewBox="0 0 31 31" fill="none" xmlns="http://www.w3.org/2000/svg">
<rect x="0.972656" y="0.604736" width="30" height="30" rx="5" fill="#00AEEF"/>
<path d="M13.4527 21.6047C12.9727 21.6047 12.7327 21.3701 12.7327 20.9007C12.7327 20.4421 12.9727 20.2127 13.4527 20.2127H15.4047V12.2287L13.9007 13.1887C13.698 13.3167 13.506 13.3541 13.3247 13.3007C13.154 13.2367 13.0207 13.1247 12.9247 12.9647C12.8393 12.8047 12.8127 12.6341 12.8447 12.4527C12.8873 12.2607 13.01 12.1007 13.2127 11.9727L15.4207 10.5807C15.602 10.4741 15.7727 10.3887 15.9327 10.3247C16.1033 10.2501 16.2633 10.2127 16.4127 10.2127C16.594 10.2127 16.7433 10.2661 16.8607 10.3727C16.9887 10.4794 17.0527 10.6447 17.0527 10.8687V20.2127H18.8447C19.3353 20.2127 19.5807 20.4421 19.5807 20.9007C19.5807 21.3701 19.3353 21.6047 18.8447 21.6047H13.4527Z" fill="white"/>
</svg>
