<svg xmlns="http://www.w3.org/2000/svg" version="1.1" xmlns:xlink="http://www.w3.org/1999/xlink" xmlns:svgjs="http://svgjs.com/svgjs" width="1440" height="560" preserveAspectRatio="none" viewBox="0 0 1440 560"><g mask="url(&quot;#SvgjsMask1136&quot;)" fill="none"><rect width="1440" height="560" x="0" y="0" fill="rgba(235, 186, 186, 1)"></rect><path d="M0,444.133C81.551,429.571,149.469,384.797,223.833,348.291C309.118,306.424,410.049,288.792,468.696,214.046C533.491,131.464,580.642,22.42,560.318,-80.562C540.154,-182.733,440.974,-245.22,364.177,-315.561C295.631,-378.345,228.936,-451.772,137.397,-467.931C49.025,-483.531,-31.843,-426.947,-117.631,-400.615C-202.167,-374.667,-294.122,-370.064,-362.827,-314.392C-438.556,-253.028,-493.093,-168.475,-519.801,-74.736C-548.911,27.432,-564.753,141.128,-520.077,237.511C-475.475,333.736,-380.429,399.43,-281.864,438.589C-192.726,474.003,-94.422,460.993,0,444.133" fill="#d87979"></path><path d="M1440 986.22C1537.093 980.931 1645.371 1059.305 1725.257 1003.869 1805.646 948.0840000000001 1773.7440000000001 819.881 1810.426 729.168 1844.837 644.073 1928.063 580.686 1933.437 489.054 1939.241 390.077 1894.6770000000001 295.955 1840.708 212.784 1780.749 120.38299999999998 1717.297 1.8079999999999927 1608.063-12.370999999999981 1496.769-26.817999999999984 1419.643 97.09199999999998 1318.13 144.949 1236.699 183.339 1144.966 188.702 1071.421 240.62400000000002 981.8240000000001 303.879 867.88 366.95500000000004 850.322 475.217 832.779 583.386 936.534 669.553 986 767.335 1033.121 860.482 1040.017 990.74 1134.046 1036.074 1229.047 1081.877 1334.69 991.957 1440 986.22" fill="#fefbfb"></path></g><defs><mask id="SvgjsMask1136"><rect width="1440" height="560" fill="#ffffff"></rect></mask></defs></svg>