<svg width="31" height="31" viewBox="0 0 31 31" fill="none" xmlns="http://www.w3.org/2000/svg">
<rect x="0.972656" y="0.604736" width="30" height="30" rx="5" fill="#662D91"/>
<path d="M15.5967 21.7487C14.9993 21.7487 14.386 21.6687 13.7567 21.5087C13.138 21.3487 12.6047 21.0981 12.1567 20.7567C11.9433 20.6181 11.8153 20.4527 11.7727 20.2607C11.73 20.0687 11.7513 19.8981 11.8367 19.7487C11.922 19.5887 12.0553 19.4821 12.2367 19.4287C12.418 19.3754 12.6207 19.4181 12.8447 19.5567C13.3033 19.8341 13.7513 20.0367 14.1887 20.1647C14.626 20.2821 15.0793 20.3407 15.5487 20.3407C16.3167 20.3407 16.898 20.1754 17.2927 19.8447C17.698 19.5141 17.9007 19.0394 17.9007 18.4207C17.9007 17.8021 17.698 17.3434 17.2927 17.0447C16.898 16.7461 16.322 16.5967 15.5647 16.5967H14.4767C13.9753 16.5967 13.7247 16.3621 13.7247 15.8927C13.7247 15.4341 13.9753 15.2047 14.4767 15.2047H15.4047C16.0767 15.2047 16.6047 15.0341 16.9887 14.6927C17.3833 14.3514 17.5807 13.8821 17.5807 13.2847C17.5807 12.7407 17.3993 12.3247 17.0367 12.0367C16.674 11.7381 16.1567 11.5887 15.4847 11.5887C15.0367 11.5887 14.6207 11.6474 14.2367 11.7647C13.8527 11.8821 13.4527 12.0901 13.0367 12.3887C12.834 12.5167 12.6473 12.5594 12.4767 12.5167C12.306 12.4634 12.1727 12.3621 12.0767 12.2127C11.9913 12.0527 11.9647 11.8821 11.9967 11.7007C12.0287 11.5087 12.146 11.3434 12.3487 11.2047C12.7967 10.8741 13.298 10.6234 13.8527 10.4527C14.418 10.2714 15.0047 10.1807 15.6127 10.1807C16.7433 10.1807 17.6233 10.4421 18.2527 10.9647C18.882 11.4767 19.1967 12.1914 19.1967 13.1087C19.1967 13.7274 19.0367 14.2714 18.7167 14.7407C18.4073 15.2101 17.9753 15.5514 17.4207 15.7647C18.0927 15.9354 18.61 16.2661 18.9727 16.7567C19.3353 17.2367 19.5167 17.8287 19.5167 18.5327C19.5167 19.5247 19.1647 20.3087 18.4607 20.8847C17.7673 21.4607 16.8127 21.7487 15.5967 21.7487Z" fill="white"/>
</svg>
