<?xml version="1.0" encoding="iso-8859-1"?>
<!-- Generator: Adobe Illustrator 19.0.0, SVG Export Plug-In . SVG Version: 6.00 Build 0)  -->
<svg version="1.1" id="Layer_1" xmlns="http://www.w3.org/2000/svg" xmlns:xlink="http://www.w3.org/1999/xlink" x="0px" y="0px"
	 viewBox="0 0 291.511 291.511" style="enable-background:new 0 0 291.511 291.511;" xml:space="preserve">
<g>
	<g>
		<g>
			<path d="M32.709,72.725l48.653,50.572c9.795,10.182,26.045,10.175,35.834,0l48.653-50.572c0.099-0.103,0.194-0.208,0.287-0.316
				C191.742,45.136,172.456,0.108,134.904,0c-0.043,0-0.084,0-0.127,0c-14.534,0-27.57,7.182-35.498,18.713
				C91.343,7.17,78.308,0,63.781,0c-0.043,0-0.085,0-0.127,0C26.11,0.108,6.822,45.119,32.41,72.396
				C32.506,72.508,32.606,72.618,32.709,72.725z M63.697,15c0.027,0,0.055,0,0.082,0c15.477,0,28,12.523,28,28
				c0,4.142,3.357,7.5,7.5,7.5s7.5-3.358,7.5-7.5c0-15.476,12.523-28,28-28c0.026,0,0.055,0,0.082,0
				c24.57,0.07,37.09,29.619,20.153,47.339c-0.08,0.084-0.157,0.168-0.232,0.254l-48.397,50.304c-3.876,4.031-10.323,4.045-14.213,0
				L43.786,62.604c-0.078-0.09-0.159-0.178-0.242-0.265C26.579,44.59,39.184,15.07,63.697,15z"/>
			<path d="M283.777,145.361h-141c-17.921,0-32.5,14.58-32.5,32.5c0,14.018,8.922,25.992,21.385,30.542l-19.346,12.192
				l-62.263-39.238c-15.16-9.551-35.269-4.993-44.822,10.168c-9.555,15.161-4.993,35.269,10.167,44.823l79.59,50.158
				c10.586,6.671,24.063,6.676,34.656,0l120.823-76.145h33.309c4.143,0,7.5-3.358,7.5-7.5v-50
				C291.277,148.719,287.92,145.361,283.777,145.361z M276.278,195.361h-0.001h-27.975c-1.415,0-2.802,0.4-3.999,1.155
				l-122.656,77.3c-5.698,3.592-12.957,3.595-18.66,0l-79.59-50.158c-14.772-9.309-8.184-32.3,9.359-32.3
				c3.187,0,6.411,0.869,9.301,2.689l66.261,41.758c2.443,1.54,5.555,1.54,7.998,0l40.374-25.444h13.59c4.143,0,7.5-3.358,7.5-7.5
				c0-4.142-3.357-7.5-7.5-7.5c-15.5,0-12.165,0-27.502,0c-9.649,0-17.5-7.851-17.5-17.5s7.851-17.5,17.5-17.5h133.5V195.361z"/>
		</g>
	</g>
</g>
<g>
</g>
<g>
</g>
<g>
</g>
<g>
</g>
<g>
</g>
<g>
</g>
<g>
</g>
<g>
</g>
<g>
</g>
<g>
</g>
<g>
</g>
<g>
</g>
<g>
</g>
<g>
</g>
<g>
</g>
</svg>
